<svg xmlns="http://www.w3.org/2000/svg" viewBox="0 0 512 512" fill="none">
  <defs>
    <linearGradient id="left" x1="82" y1="70" x2="220" y2="452" gradientUnits="userSpaceOnUse">
      <stop stop-color="#22D3EE"/>
      <stop offset=".52" stop-color="#6366F1"/>
      <stop offset="1" stop-color="#A855F7"/>
    </linearGradient>
    <linearGradient id="right" x1="430" y1="64" x2="278" y2="452" gradientUnits="userSpaceOnUse">
      <stop stop-color="#F472B6"/>
      <stop offset=".55" stop-color="#D946EF"/>
      <stop offset="1" stop-color="#8B5CF6"/>
    </linearGradient>
    <linearGradient id="core" x1="168" y1="168" x2="344" y2="344" gradientUnits="userSpaceOnUse">
      <stop stop-color="#22D3EE"/>
      <stop offset=".48" stop-color="#8B5CF6"/>
      <stop offset="1" stop-color="#EC4899"/>
    </linearGradient>
  </defs>
  <path d="M219 59C126 77 58 159 58 256s68 179 161 197" stroke="url(#left)" stroke-width="75" stroke-linecap="round"/>
  <path d="M293 59c93 18 161 100 161 197s-68 179-161 197" stroke="url(#right)" stroke-width="75" stroke-linecap="round"/>
  <path d="M256 151c13 67 37 91 105 105-68 14-92 38-105 105-13-67-37-91-105-105 68-14 92-38 105-105Z" fill="url(#core)"/>
  <circle cx="87" cy="174" r="18" fill="#67E8F9"/>
  <circle cx="425" cy="338" r="18" fill="#F0ABFC"/>
</svg>
